<svg preserveAspectRatio="none" width="100%" height="100%" overflow="visible" style="display: block;" viewBox="0 0 36 36" fill="none" xmlns="http://www.w3.org/2000/svg">
<g id="Group">
<path id="Vector" d="M11.1119 21.6658V28.2393M17.8082 21.6658V28.2393M24.5045 21.6658V28.2393M32.1652 15.0924H3.45128C3.06821 15.0892 2.6889 15.1667 2.33895 15.3196C1.98899 15.4726 1.67653 15.6975 1.42266 15.9791C1.16879 16.2607 0.9794 16.5925 0.867284 16.9521C0.755167 17.3117 0.722929 17.6907 0.772743 18.0636L2.72807 32.5252C2.81307 33.1618 3.13238 33.7458 3.62579 34.1672C4.1192 34.5886 4.75262 34.8182 5.40661 34.8128H30.1563C30.8102 34.8182 31.4437 34.5886 31.9371 34.1672C32.4305 33.7458 32.7498 33.1618 32.8348 32.5252L34.7901 18.0636C34.8394 17.6951 34.8085 17.3206 34.6995 16.9647C34.5905 16.6088 34.4059 16.2796 34.1579 15.9988C33.9098 15.7181 33.604 15.4921 33.2605 15.3359C32.917 15.1796 32.5437 15.0966 32.1652 15.0924Z" stroke="var(--stroke-0, black)" stroke-width="1.5" stroke-linecap="round" stroke-linejoin="round"/>
<path id="Vector_2" d="M24.4506 3.43917C26.0615 3.70957 27.5374 4.48374 28.6538 5.64395C29.7703 6.80416 30.4662 8.2869 30.6357 9.86666L31.2273 15.0923M4.33556 15.0923L4.92717 9.86666C5.10768 8.29627 5.80848 6.82538 6.92402 5.67555C8.03957 4.52571 9.50945 3.75919 11.1123 3.49143" stroke="var(--stroke-0, black)" stroke-width="1.5" stroke-linecap="round" stroke-linejoin="round"/>
<path id="Vector_3" d="M24.0562 3.88737C24.0562 4.29937 23.975 4.70735 23.8174 5.08799C23.6597 5.46863 23.4286 5.81449 23.1373 6.10582C22.8459 6.39716 22.5001 6.62825 22.1194 6.78592C21.7388 6.94359 21.3308 7.02474 20.9188 7.02474H14.6441C13.812 7.02474 13.014 6.6942 12.4256 6.10582C11.8372 5.51745 11.5067 4.71945 11.5067 3.88737C11.5067 3.05529 11.8372 2.25729 12.4256 1.66891C13.014 1.08054 13.812 0.75 14.6441 0.75H20.9188C21.7509 0.75 22.5489 1.08054 23.1373 1.66891C23.7256 2.25729 24.0562 3.05529 24.0562 3.88737Z" stroke="var(--stroke-0, black)" stroke-width="1.5" stroke-linecap="round" stroke-linejoin="round"/>
</g>
</svg>
