<svg preserveAspectRatio="none" width="100%" height="100%" overflow="visible" style="display: block;" viewBox="0 0 44 44" fill="none" xmlns="http://www.w3.org/2000/svg">
<g id="home">
<path id="Vector" d="M35.75 18.3333C35.75 18.0902 35.6534 17.8571 35.4815 17.6852C35.3096 17.5132 35.0764 17.4167 34.8333 17.4167C34.5902 17.4167 34.3571 17.5132 34.1851 17.6852C34.0132 17.8571 33.9167 18.0902 33.9167 18.3333H35.75ZM10.0833 18.3333C10.0833 18.0902 9.98676 17.8571 9.81485 17.6852C9.64294 17.5132 9.40978 17.4167 9.16667 17.4167C8.92355 17.4167 8.69039 17.5132 8.51849 17.6852C8.34658 17.8571 8.25 18.0902 8.25 18.3333H10.0833ZM37.851 22.649C38.0231 22.8211 38.2566 22.9178 38.5 22.9178C38.7434 22.9178 38.9769 22.8211 39.149 22.649C39.3211 22.4769 39.4178 22.2434 39.4178 22C39.4178 21.7566 39.3211 21.5231 39.149 21.351L37.851 22.649ZM22 5.5L22.649 4.851C22.5638 4.76563 22.4627 4.69791 22.3513 4.65169C22.24 4.60548 22.1206 4.58169 22 4.58169C21.8794 4.58169 21.76 4.60548 21.6487 4.65169C21.5373 4.69791 21.4361 4.76563 21.351 4.851L22 5.5ZM4.851 21.351C4.67887 21.5231 4.58218 21.7566 4.58218 22C4.58218 22.2434 4.67887 22.4769 4.851 22.649C5.02313 22.8211 5.25658 22.9178 5.5 22.9178C5.74342 22.9178 5.97687 22.8211 6.149 22.649L4.851 21.351ZM12.8333 39.4167H31.1667V37.5833H12.8333V39.4167ZM35.75 34.8333V18.3333H33.9167V34.8333H35.75ZM10.0833 34.8333V18.3333H8.25V34.8333H10.0833ZM39.149 21.351L22.649 4.851L21.351 6.149L37.851 22.649L39.149 21.351ZM21.351 4.851L4.851 21.351L6.149 22.649L22.649 6.149L21.351 4.851ZM31.1667 39.4167C32.3822 39.4167 33.548 38.9338 34.4076 38.0742C35.2671 37.2147 35.75 36.0489 35.75 34.8333H33.9167C33.9167 35.5627 33.6269 36.2622 33.1112 36.7779C32.5955 37.2936 31.896 37.5833 31.1667 37.5833V39.4167ZM12.8333 37.5833C12.104 37.5833 11.4045 37.2936 10.8888 36.7779C10.3731 36.2622 10.0833 35.5627 10.0833 34.8333H8.25C8.25 36.0489 8.73289 37.2147 9.59243 38.0742C10.452 38.9338 11.6178 39.4167 12.8333 39.4167V37.5833Z" fill="var(--fill-0, black)"/>
</g>
</svg>
