<svg preserveAspectRatio="none" width="100%" height="100%" overflow="visible" style="display: block;" viewBox="0 0 44 44" fill="none" xmlns="http://www.w3.org/2000/svg">
<g id="ri:more-line">
<path id="Vector" d="M8.25 19.25C6.7375 19.25 5.5 20.4875 5.5 22C5.5 23.5125 6.7375 24.75 8.25 24.75C9.7625 24.75 11 23.5125 11 22C11 20.4875 9.7625 19.25 8.25 19.25ZM35.75 19.25C34.2375 19.25 33 20.4875 33 22C33 23.5125 34.2375 24.75 35.75 24.75C37.2625 24.75 38.5 23.5125 38.5 22C38.5 20.4875 37.2625 19.25 35.75 19.25ZM22 19.25C20.4875 19.25 19.25 20.4875 19.25 22C19.25 23.5125 20.4875 24.75 22 24.75C23.5125 24.75 24.75 23.5125 24.75 22C24.75 20.4875 23.5125 19.25 22 19.25Z" fill="var(--fill-0, black)"/>
</g>
</svg>
